<svg xmlns="http://www.w3.org/2000/svg">
  <defs>

    <symbol id="journal" viewBox="0 0 106.73 119.01">
      <path class="cls-1" d="M40.2,118.82l.67.19c.43.02.85-.15,1.17-.46l3.75-3.81,4.09,3.9c.5.42,1.18.49,1.75.18.56-.32.92-.96.92-1.66v-6.51h42.43c.08,0,9.25-.93,9.25-13.95v-30.96c.25.17.54.27.83.28h.25c.82-.14,1.43-.93,1.42-1.86v-15.25c.05-2.61-.85-5.13-2.5-6.97v-20.82c.05-2.52-1.05-4.9-2.92-6.32-.85-.62-1.83-1-2.83-1.12-.17-4.28-1.33-7.62-3.42-9.95C92.93,1.36,90.05.03,87.05,0H31.19c-7.42-.28-11.09,6.23-11.92,9.67-.05.15-.08.31-.08.46v8.09l3.33,7.34v-15.06c.33-1.21,2.42-7.07,8.59-6.69h46.44v34.3h-.33c-7.75,1.21-9.17,8.37-8.84,12.09,0,7.25,5.67,9.85,8.67,10.23h.5v27.98h-32.51v.74c0,1.05-.25,2.08-.75,2.97h33.26v2.7h-38.35c-.92,0-1.67.83-1.67,1.86s.75,1.86,1.67,1.86v1.86h-8.5c-.33,0-3-.19-3.17-4-.08-.65-.17-3.72,2.5-4.28h5.42l-3.5-3.72h-2.33c-4.75.93-5.67,5.86-5.42,8.27.33,5.86,4.34,7.44,6.5,7.44h8.5v2.79h-9c-8.5-1.39-7.84-10.23-7.67-11.25v-22.96l-3.33-7.34v29.93c-.5,4.65,1.08,13.76,10.67,15.25h9.34v6.51c-.02.76.38,1.46,1,1.77h0ZM84.21,106.92h-3.33v-46.48h3.33v46.48ZM100.89,96.6c0,9.2-5.25,10.13-6.09,10.23h-7.25v-2.79h2.92c6,0,7.75-5.39,7.92-8.37v-35.05c.88.15,1.72.46,2.5.93v35.05ZM88.55,92.05c2.35-.15,4.6-1.06,6.5-2.6v2.42c-1.75,1.95-5,2.7-7.5,2.88v-2.6l1-.09ZM87.55,88.33v-27.89h7.5v22.96c-1.5,4.74-6.42,4.93-6.59,4.93h-.92ZM94.97,96.51c-.25,1.49-1.25,3.9-4.75,3.81h-2.67v-1.86c2.56-.06,5.09-.69,7.42-1.86v-.09ZM99.47,17.86c.91.73,1.44,1.91,1.42,3.16v18.41c-.8-.4-1.64-.71-2.5-.93v-21.01l1.08.37ZM87.55,3.73c1.91.14,3.71,1.03,5.09,2.51,1.75,1.95,2.58,5.02,2.5,9.02-.02.15-.02.31,0,.46v22.41h-7.5l-.08-34.4ZM80.88,3.73h3.33v34.4h-3.33V3.73ZM77.38,56.72c-.92-.09-5.67-1.12-5.59-6.6v-.19c-.26-1.93.21-3.9,1.3-5.44,1.09-1.53,2.7-2.49,4.45-2.65h18.76c.75.09,7.09.93,7.09,7.07v9.95c-1.98-1.52-4.35-2.31-6.75-2.23h-19.26v.09ZM52.53,98.55h25.01v1.86h-25.01v-1.86ZM52.53,104.13h25.01v2.79h-25.01v-2.79ZM42.53,98.55h6.67v14.6l-2.42-2.32c-.66-.62-1.63-.59-2.25.09l-2,1.95v-14.32Z"/>
      <path class="cls-1" d="M79.21,43.7c-2.02,0-3.85,1.36-4.62,3.44-.77,2.08-.35,4.48,1.08,6.08,1.43,1.59,3.58,2.07,5.45,1.21,1.87-.86,3.09-2.9,3.09-5.15,0-3.08-2.24-5.58-5-5.58ZM79.21,51.14c-.68,0-1.28-.45-1.54-1.15-.25-.69-.11-1.49.36-2.03.48-.53,1.2-.69,1.82-.4.63.29,1.03.97,1.03,1.72,0,.49-.18.97-.49,1.32s-.74.54-1.18.54h0Z"/>
      <path class="cls-1" d="M9.27,35.34c.03.2.08.38.17.56l.33.46,20.34,44.81h.08l.25.37,8.42,8.92c.29.39.72.62,1.17.65l.67-.19c.6-.29.99-.94,1-1.67l-.25-13.2c-.02-.13-.05-.25-.08-.37v-.28L14.1,15.35c-.51-1.3-1.48-2.3-2.67-2.79l-1.08-.28-2.58-5.67c-.2-.45-.55-.79-.97-.94-.43-.16-.89-.12-1.28.11l-4.34,2.6c-.4.22-.7.61-.85,1.08-.14.47-.1.99.1,1.43l2.58,5.67c-.68,1.44-.75,3.15-.17,4.65l.67,1.49-1.75,1.12c-1.59.95-2.21,3.13-1.42,4.93l9.09,21.29c.28.63.87,1.03,1.5,1.02l.75-.19c.4-.22.7-.61.85-1.08.14-.47.1-.99-.1-1.43L3.35,27.06l1.75-1.02,4.17,9.3ZM38.28,84.89l-3.75-4,3.67-1.95.08,5.95ZM37.53,75.22l-5.17,2.7L13.27,35.8l5.09-2.88,19.18,42.3ZM9.35,16.09c.3-.13.62-.13.92,0,.34.15.61.46.75.84l5.67,12.55-4.92,3.07-5.84-12.83c-.22-.55-.15-1.19.17-1.67l3.25-1.95ZM5.6,9.96l1.5,3.25-1.5.74-1.42-3.16,1.42-.84Z"/>
    </symbol>

  </defs>

</svg>