<svg xmlns="http://www.w3.org/2000/svg">
  <defs>
    <!-- Icons go here -->

    <symbol id="calendar" viewBox="0 0 55 1100 1376">

        <path class="cls-1" d="M3.43,49h42.15c1.89,0,3.43-1.54,3.43-3.43V9.89c0-1.89-1.54-3.43-3.43-3.43h-3.05V.5c0-.28-.22-.5-.5-.5s-.5.22-.5.5v5.96h-3.25V.5c0-.28-.22-.5-.5-.5s-.5.22-.5.5v5.96H11.73V.5c0-.28-.22-.5-.5-.5s-.5.22-.5.5v5.96h-3.25V.5c0-.28-.22-.5-.5-.5s-.5.22-.5.5v5.96h-3.05c-1.89,0-3.43,1.54-3.43,3.43v35.69c0,1.89,1.54,3.43,3.43,3.43ZM1,9.89c0-1.34,1.09-2.43,2.43-2.43h3.05v1.96c0,.28.22.5.5.5s.5-.22.5-.5v-1.96h3.25v1.96c0,.28.22.5.5.5s.5-.22.5-.5v-1.96h25.54v1.96c0,.28.22.5.5.5s.5-.22.5-.5v-1.96h3.25v1.96c0,.28.22.5.5.5s.5-.22.5-.5v-1.96h3.05c1.34,0,2.43,1.09,2.43,2.43v3.66H1v-3.66ZM1,14.54h47v31.03c0,1.34-1.09,2.43-2.43,2.43H3.43c-1.34,0-2.43-1.09-2.43-2.43V14.54Z"/>
        <path class="cls-1" d="M6.08,19.24h4.23c.28,0,.5-.22.5-.5s-.22-.5-.5-.5h-4.23c-.28,0-.5.22-.5.5s.22.5.5.5Z"/>
        <path class="cls-1" d="M16.95,19.24h4.23c.28,0,.5-.22.5-.5s-.22-.5-.5-.5h-4.23c-.28,0-.5.22-.5.5s.22.5.5.5Z"/>
        <path class="cls-1" d="M27.82,19.24h4.23c.28,0,.5-.22.5-.5s-.22-.5-.5-.5h-4.23c-.28,0-.5.22-.5.5s.22.5.5.5Z"/>
        <path class="cls-1" d="M38.69,19.24h4.23c.28,0,.5-.22.5-.5s-.22-.5-.5-.5h-4.23c-.28,0-.5.22-.5.5s.22.5.5.5Z"/>
        <path class="cls-1" d="M6.08,27.6h4.23c.28,0,.5-.22.5-.5s-.22-.5-.5-.5h-4.23c-.28,0-.5.22-.5.5s.22.5.5.5Z"/>
        <path class="cls-1" d="M16.95,27.6h4.23c.28,0,.5-.22.5-.5s-.22-.5-.5-.5h-4.23c-.28,0-.5.22-.5.5s.22.5.5.5Z"/>
        <path class="cls-1" d="M27.82,27.6h4.23c.28,0,.5-.22.5-.5s-.22-.5-.5-.5h-4.23c-.28,0-.5.22-.5.5s.22.5.5.5Z"/>
        <path class="cls-1" d="M38.69,27.6h4.23c.28,0,.5-.22.5-.5s-.22-.5-.5-.5h-4.23c-.28,0-.5.22-.5.5s.22.5.5.5Z"/>
        <path class="cls-1" d="M6.08,35.95h4.23c.28,0,.5-.22.5-.5s-.22-.5-.5-.5h-4.23c-.28,0-.5.22-.5.5s.22.5.5.5Z"/>
        <path class="cls-1" d="M16.95,35.95h4.23c.28,0,.5-.22.5-.5s-.22-.5-.5-.5h-4.23c-.28,0-.5.22-.5.5s.22.5.5.5Z"/>
        <path class="cls-1" d="M27.82,35.95h4.23c.28,0,.5-.22.5-.5s-.22-.5-.5-.5h-4.23c-.28,0-.5.22-.5.5s.22.5.5.5Z"/>
        <path class="cls-1" d="M38.69,35.95h4.23c.28,0,.5-.22.5-.5s-.22-.5-.5-.5h-4.23c-.28,0-.5.22-.5.5s.22.5.5.5Z"/>
        <path class="cls-1" d="M6.08,44.3h4.23c.28,0,.5-.22.5-.5s-.22-.5-.5-.5h-4.23c-.28,0-.5.22-.5.5s.22.5.5.5Z"/>
        <path class="cls-1" d="M16.95,44.3h4.23c.28,0,.5-.22.5-.5s-.22-.5-.5-.5h-4.23c-.28,0-.5.22-.5.5s.22.5.5.5Z"/>
        <path class="cls-1" d="M27.82,44.3h4.23c.28,0,.5-.22.5-.5s-.22-.5-.5-.5h-4.23c-.28,0-.5.22-.5.5s.22.5.5.5Z"/>
        <path class="cls-1" d="M38.69,44.3h4.23c.28,0,.5-.22.5-.5s-.22-.5-.5-.5h-4.23c-.28,0-.5.22-.5.5s.22.5.5.5Z"/>
     </symbol>

     <symbol id="weight"  viewBox="0 0 49.9 49.95" >
        <path class="cls-1" d="M45.35,26.75c-1.4-1.4-3.7-1.4-5.1,0l-4.3,4.3L18.95,14.05l4.2-4.2c1.4-1.4,1.4-3.7,0-5.1l-3-3.2c-1.4-1.4-3.7-1.4-5.1,0l-4.2,4.2-.4-.4c-1.4-1.4-3.7-1.4-5,0-1.4,1.4-1.4,3.7,0,5l.4.4L1.55,15.05c-1.4,1.4-1.4,3.7,0,5.1l3.1,3.1c.7.7,1.6,1,2.5,1s1.8-.3,2.5-1l4.3-4.3,17,17-4.3,4.3c-1.4,1.4-1.4,3.7,0,5.1l3.1,3.1c.7.7,1.6,1,2.5,1s1.8-.3,2.5-1l4.3-4.3.4.4c.7.7,1.6,1.1,2.5,1.1s1.8-.4,2.5-1.1c1.4-1.4,1.4-3.7,0-5l-.4-.4,4.3-4.3c1.4-1.4,1.4-3.7,0-5.1l-3-3ZM6.05,6.15c1-1,2.7-1,3.6,0l.4.4-3.6,3.6-.4-.4c-1-1-1-2.6,0-3.6ZM8.95,22.55c-1,1-2.6,1-3.7,0l-3.1-3.1c-1-1-1-2.6,0-3.7l4.6-4.6h0l4.3-4.3h0l4.6-4.6c.6-.4,1.2-.7,1.9-.7s1.3.3,1.8.8l3.1,3.1c1,1,1,2.7,0,3.7l-13.5,13.4ZM14.65,18.35l3.6-3.6,17,17-3.6,3.6L14.65,18.35ZM43.85,43.95c-1,1-2.7,1-3.6,0l-.4-.4,3.6-3.6.4.4c1,1,1,2.6,0,3.6ZM47.65,34.25l-4.6,4.6-4.3,4.3-4.6,4.6c-1,1-2.7,1-3.7,0l-3.1-3.1c-1-1-1-2.6,0-3.7l4.6-4.6,4.3-4.3,4.6-4.6c1-1,2.7-1,3.7,0l3.1,3.1c1.1,1,1.1,2.7,0,3.7Z"/>

     </symbol>


  </defs>

</svg>
