<svg xmlns="http://www.w3.org/2000/svg">
  <defs>

    <symbol id="pot" viewBox="0 0 106.45 95.35">
      <g>
      <path class="cls-1" d="M41.43,103.44c-1.97-.55-3.89-1.25-5.72-2.11-.68-.32-1.53-.08-1.89.54-.36.62-.09,1.38.6,1.7,1.98.92,4.05,1.68,6.18,2.27.13.03.27.05.41.05.7,0,1.29-.45,1.39-1.08.1-.62-.31-1.21-.97-1.39h0Z"/>
      <path class="cls-1" d="M19.4,85.33c-.14-.31-.41-.56-.76-.7-.35-.13-.73-.13-1.08,0-.35.13-.62.38-.76.69s-.14.67,0,.97c2.65,5.79,7.02,10.8,12.62,14.5.62.41,1.51.3,1.97-.27.46-.56.32-1.36-.3-1.77-5.19-3.42-9.23-8.07-11.69-13.43h0Z"/>
      <path class="cls-1" d="M11.47,31.78c-.98.82-1.34,2.09-.91,3.23l.68,1.9c.45,1.27,1.75,2.14,3.23,2.18l1.47,24.8h0c.13,1.73.36,3.46.69,5.17h-6.84c-.78,0-1.4.56-1.4,1.26v3.09c.09,13.87,8.35,26.66,21.71,33.58,13.35,6.92,29.79,6.92,43.14,0,13.35-6.92,21.62-19.7,21.71-33.58v-3.09c0-.34-.15-.66-.41-.89s-.62-.37-.99-.37h-49.4c-1.46-4.08-3.46-7.98-5.97-11.62l-14.87-20.92h0c1.19-.79,1.69-2.19,1.23-3.46l-.68-1.9c-.28-.8-.9-1.46-1.73-1.84-.35-.15-.72-.26-1.11-.3L15.73,5.73c-.45-1.99-1.82-3.72-3.77-4.75C10.01-.05,7.66-.28,5.51.34,3.36.97,1.61,2.39.69,4.25s-.92,3.98,0,5.84l10.78,21.7ZM25.8,69.06c-.74-2.46-1.36-4.81-1.82-7.01l-5.11-24.04.19-.05,11.4,22.23c1.34,2.6,2.68,5.65,3.93,8.87h-8.58ZM18.74,63.76l-1.06-17.89,3.54,16.67c.44,2.06,1,4.25,1.68,6.53h-3.44c-.36-1.76-.6-3.53-.72-5.31h0ZM92.14,73.42c-.01,9.66-4.28,18.93-11.87,25.77-7.59,6.84-17.88,10.68-28.61,10.69-10.73,0-21.02-3.85-28.61-10.69-7.59-6.83-11.86-16.1-11.87-25.77v-1.83h80.95v1.83ZM41.2,69.06h-3.85c-1.25-3.38-2.71-6.69-4.34-9.94l-7.9-15.4,10.71,15.08h0c2.23,3.23,4.03,6.66,5.38,10.26h0ZM21.82,34.31c-.08.14-.23.26-.41.31l-.56.16h-.03l-3.39.98-.61.18h-.01l-1.47.43h-.01l-.56.16c-.18.05-.37.03-.53-.04s-.28-.21-.34-.37l-.68-1.9c-.12-.33.08-.68.44-.78l6.64-1.92h0c.07-.02.14-.03.21-.03.11,0,.22.02.32.07.16.08.28.21.34.37l.68,1.9h0c.05.16.04.34-.05.49h0ZM3.26,5.28c.91-1.84,3.03-2.94,5.25-2.72,2.22.22,4.03,1.7,4.48,3.68l5.27,23.23-4.25,1.23-2.8-5.65,2.83-.82c.37-.08.7-.31.88-.61.19-.31.22-.67.1-1-.12-.34-.38-.61-.73-.75-.35-.15-.75-.16-1.11-.03l-3.13.91-1.59-3.21,3.54-1.03c.69-.24,1.05-.93.82-1.56-.22-.63-.96-1-1.68-.83l-3.83,1.1L3.26,9.05c-.59-1.2-.6-2.57,0-3.77h0Z"/>
      <path class="cls-1" d="M49.93,47.4c.09.42.13.86.13,1.29v.96c-.06,2.06-.86,4.05-2.27,5.67-1.1,1.36-1.56,3.05-1.28,4.71.56,3.3,3.86,5.66,7.55,5.4s6.55-3.03,6.55-6.37c0-1.42-.52-2.8-1.5-3.91-1.37-1.57-2.12-3.51-2.14-5.5v-1.03c0-.39.04-.78.12-1.17,4.88-1.13,9.33-3.42,12.92-6.62,4.49-4.03,6.05-8.53,4.42-12.69-.31-.74-.09-1.57.55-2.1l21.46-17.68c1.08-.88,1.71-2.13,1.74-3.44.03-1.31-.53-2.58-1.56-3.51C95.59.48,94.18-.03,92.72,0c-1.46.03-2.84.6-3.82,1.56l-19.63,19.32c-.6.58-1.52.78-2.34.51-4.58-1.47-9.59-.06-14.08,3.97-4.62,4.16-7.84,10.34-7.84,15.04-.12,2.03.68,4.01,2.21,5.5.77.68,1.69,1.19,2.71,1.5h0ZM57.81,59.07c0,1.24-.65,2.4-1.76,3.13-1.11.73-2.54.93-3.85.55-1.3-.38-2.33-1.3-2.76-2.47-.43-1.17-.2-2.46.6-3.46,1.77-2.05,2.76-4.56,2.82-7.16v-.96c.05-1.5-.37-2.98-1.22-4.27-.42-.61-.44-1.38-.05-2.01.38-.63,1.12-1.02,1.92-1.02.21,0,.42.02.62.07.72.18,1.29.69,1.5,1.34.18.55.08,1.14-.25,1.63-.35.51-.61,1.06-.8,1.63-.01.03-.03.06-.03.09-.26.8-.38,1.63-.38,2.47v1.04c.02,2.56.98,5.04,2.73,7.05.59.67.9,1.49.9,2.35h0ZM54.82,27.15c3.69-3.31,7.65-4.51,11.17-3.38,1.88.6,3.98.14,5.34-1.18L90.96,3.27c.47-.46,1.13-.73,1.82-.74.7-.02,1.37.22,1.86.67.49.44.76,1.05.74,1.67-.02.63-.32,1.21-.84,1.63l-21.46,17.68h0c-1.48,1.22-2,3.12-1.31,4.81,1.25,3.18-.09,6.75-3.76,10.05-2.75,2.43-6.05,4.29-9.67,5.45.22-.77.22-1.57,0-2.34-.48-1.53-1.81-2.72-3.51-3.13-1.52-.37-3.14-.07-4.39.79-1.2.83-1.91,2.11-1.93,3.47-.51-.89-.75-1.87-.72-2.87,0-4.02,2.95-9.6,7.02-13.26h0Z"/>
      </g>
    </symbol>

    <symbol id="mealplan" viewBox="0 0 94.98 103.93">
        
          <path class="cls-1" d="M87.04,48.82c5.1,1.26,5.68,8.72-2.17,10.1-1.22.2-2.34.2-3.32,1.12l.91.54c.17.08.32.2.47.33.66-.18,1.34-.26,2-.26,4.76,0,8.59,4.02,8.59,8.98,0,1.02-.17,2.02-.47,2.97h.54c1,0,1.34.82,1.22,1.74-.47,3.94-1.66,7.72-3.51,11.2,2.32,1.94,3.69,4.89,3.69,8.03,0,5.68-4.41,10.31-9.84,10.31h-5.42c-.63,0-1.27-.05-1.9-.2-.36.16-.73.23-1.12.23H7.15c-3.93,0-7.15-3.38-7.15-7.5V22.03c0-4.12,3.22-7.5,7.15-7.5h9.95v-1.51c0-1.89,1.49-3.43,3.29-3.43h4.81v-1.66c0-10.57,15.23-10.57,15.23,0v1.66h4.17c1.81,0,3.29,1.54,3.29,3.43v1.51h9.96c3.93,0,7.15,3.38,7.15,7.5v34.23l.17.1c.37.23.71.46,1.05.69l.19-.67c.78-2.61,4.1-3.04,6.1-1.82l1,.59c.27-1.3-.29-2.33-.73-3.55-2.78-7.83,3.66-11.03,7.25-7.01,3.29-3.59,8.32-.55,7,4.24h0ZM27.74,9.6h10.15v-1.66c0-7.04-10.15-7.04-10.15,0v1.66ZM17.1,17.2H7.63v78.75h40.14c-6.83-4.99-11.44-12.76-12.52-21.51-.1-.95.17-1.81,1.22-1.81h.8c-.58-1.41-.47-3.05.34-4.33-3.03-2-3.05-6.7-.05-8.75-1.34-2.81.54-6.27,3.54-6.47.85-4.66,6.96-5.71,9.15-1.56,1.9-.03,3.61,1.28,4.17,3.17.95-.31,1.93-.49,2.93-.51V17.2h-9.47v.56c0,1.89-1.49,3.45-3.29,3.45h-24.21c-1.81,0-3.29-1.56-3.29-3.45v-.56ZM20.39,12.26h24.21c.41,0,.76.36.76.77v4.73c0,.43-.34.79-.76.79h-24.21c-.41,0-.73-.35-.73-.79v-4.73c0-.41.32-.77.73-.77ZM19,79.32l6.78-7.11c1.17-1.25,2.98.64,1.78,1.89l-7.64,8.01c-.49.51-1.34.54-1.83,0l-3.64-3.81c-1.2-1.23.61-3.12,1.78-1.87l2.76,2.89ZM19,59.93l6.78-7.09c1.17-1.26,2.98.64,1.78,1.87l-7.64,8.01c-.49.54-1.34.56-1.83.03l-3.64-3.81c-1.2-1.25.61-3.12,1.78-1.89l2.76,2.88ZM32.28,33.83h17.38c1.68,0,1.68,2.66,0,2.66h-17.38c-1.68,0-1.68-2.66,0-2.66ZM32.28,40.33h17.38c1.68,0,1.68,2.66,0,2.66h-17.38c-1.68,0-1.68-2.66,0-2.66ZM19,40.56l6.78-7.11c1.17-1.23,2.98.64,1.78,1.89l-7.64,8.01c-.49.54-1.34.56-1.83.02l-3.64-3.81c-1.2-1.25.61-3.15,1.78-1.89l2.76,2.89ZM50.36,101.27c-.12-.74-.05-1.89-.05-2.66H7.14c-1.12,0-2.05-.97-2.05-2.17V17.71c-1.51.79-2.56,2.43-2.56,4.32v74.4c0,2.66,2.07,4.84,4.61,4.84h43.21ZM59.93,17.72v36.66c.85.16,1.71.39,2.54.69V22.04c0-1.89-1.05-3.53-2.54-4.32h0ZM89.58,83.26c1.24-2.51,2.1-5.22,2.54-8.01h-54.18c1.39,8.57,6.52,15.94,13.76,20.14h18.33c-.1-.59-.15-1.2-.15-1.79,0-3.53,1.71-6.78,4.54-8.7.03-.33.15-.64.32-.95,1.24-2.23,4.41-1.61,6.42-1.07v-1.3c0-1.74,2.54-1.74,2.54,0v1.3c1.76-.46,4.42-.99,5.88.39h0ZM70.83,98.02h-17.99v2.72c0,.31.22.56.51.56h19.81c-.97-.92-1.78-2.02-2.34-3.28h0ZM52.09,55.86c-.1-1.13-1.17-1.92-2.22-1.64-.78.23-1.37-.18-1.61-.97-.9-2.76-4.93-1.87-4.69,1.05.07,1.07-.68,1.77-1.68,1.49-1.8-.51-3.03,1.92-1.61,3.17,1.05.95.78,2.15-.58,2.48-2.66.69-2.27,4.89.47,4.99,1.66.08,1.78,2.17.51,2.58-1.8.61-1.51,3.45.39,3.61h7.83l-5.15-2.53c-1.52-.74-.44-3.15,1.05-2.4l4.49,2.2-1-2.92-6.78-3.3c-1.49-.74-.41-3.15,1.07-2.4l4.49,2.2-1.68-4.86c-.56-1.64,1.81-2.53,2.37-.89l1.27,3.61c.21-2.24,1.28-4.18,3.06-5.46h0ZM53.46,71.23l-.58,1.26.05.13h2.27c-.61-.44-1.2-.9-1.74-1.38h0ZM61.61,72.49l.37-1.2c-.32-.13-.63-.26-.93-.43-2.29-1.38-3.08-4.48-1.76-6.88,1.12-2.02,3.44-2.99,5.57-2.3l.56-1.94c-.47-.39-.98-.74-1.49-1.05-1.93-1.15-4.17-1.89-6.39-1.87-5.27.1-7.52,4.43-5.03,9.13,1.07,2.05,2.81,3.71,4.74,4.86,1.33.82,2.82,1.41,4.36,1.69h0ZM62.73,68.75l1.37-4.55c-1-.31-2.1.13-2.61,1.1-.63,1.13-.25,2.61.83,3.25.12.08.27.15.41.2h0ZM84.6,63.33c.41,1.28.29,2.66-.61,3.68l-4.88,5.6h11.18c.47-.92.69-1.92.69-2.97,0-3.48-2.71-6.32-6.05-6.32h-.32,0ZM64.22,72.62h11.44l1.24-1.43-3.47-2.1c-1.44-.87-.17-3.15,1.27-2.3l3.95,2.4,3.47-3.97c.58-.67-.39-2-.95-2.36l-9.93-5.99c-.56-.36-2.15-.56-2.42.31l-.32,1.05,5.66,3.43c1.44.87.17,3.17-1.27,2.3l-5.17-3.12-1.59,5.35,4.2,2.56c1.44.87.17,3.17-1.24,2.3l-3.73-2.25-1.15,3.81ZM79.3,58.67c1.49-1.84,2.95-1.97,5.15-2.36,6.52-1.15,3.25-5.73.93-4.84-1.29.49-2.29-1.02-1.42-2.15,2.54-3.25-1.59-5.35-2.81-1.71-.47,1.41-2.24,1.23-2.49-.2-.41-2.53-5.83-3.23-3.51,3.27.78,2.17,1.39,3.56.63,5.86l3.52,2.13ZM81.82,85.74c-.07-.03-.15-.03-.22-.05-.85-.26-3.49-1.05-4.46-.67.54.05.97.03,1.44.54.66.74.39,1.72.03,2.53.37-.1.8-.28,1.12-.43.44-.26,1.02-.61,1.32-1.02.25-.31.49-.64.78-.9h0ZM83.11,85.72c.27.26.47.62.69.92.32.41.91.77,1.34,1.02.32.16.76.33,1.12.43-.37-.82-.66-1.79.03-2.53.47-.51.88-.49,1.44-.54-.97-.39-3.59.38-4.46.64-.05.03-.1.05-.15.05h0ZM89.21,87.25c-.17.08-.34.16-.54.21,1.34,3.56-2.17,3.81-4.66,2.48-.56-.28-1.12-.67-1.59-1.1-.49.43-1.02.82-1.61,1.1-2.49,1.33-5.98,1.07-4.64-2.48-.19-.05-.37-.13-.56-.21-2,1.41-3.22,3.79-3.22,6.34,0,4.22,3.29,7.65,7.32,7.65h5.42c4.03,0,7.32-3.43,7.32-7.65,0-2.56-1.22-4.94-3.25-6.34h0Z"/>
     </symbol>

     

  </defs>

</svg>