<?xml version="1.0" encoding="UTF-8"?>
<svg id="Layer_1" data-name="Layer 1" xmlns="http://www.w3.org/2000/svg" viewBox="0 0 106.45 95.35">
  <defs>
    <style>
      .cls-1 {
        fill: #000;
        stroke-width: 0px;
      }
    </style>
  </defs>
  <path class="cls-1" d="M104.99,65.06c-1.91-1.83-5.5-2.9-9.73-2.96-.75-4.94-6.87-9.28-17.11-12.12l1.77-2.36c.39-.51.54-1.12.45-1.75l-1.29-9.16,11.46-15.32c1.02-.14,1.95-.64,2.57-1.46l10.46-13.98c1.24-1.66.87-4.01-.82-5.22-.82-.59-1.83-.83-2.84-.67-1.01.15-1.9.68-2.5,1.48l-10.46,13.98c-.59.79-.81,1.75-.68,2.7l-11.5,15.37-9.43,1.49c-.65.1-1.2.43-1.59.95l-8.15,10.89c-.82-.02-1.64-.03-2.46-.03-21.67,0-39.03,5.99-41.79,14.01-4.29-.16-7.94.74-9.89,2.52-.97.88-1.47,1.94-1.47,3.08,0,1.86,1.42,3.68,4,5.11,2.36,1.31,5.49,2.19,8.79,2.49.68.06,1.35.08,2.02.09,7.02,13.08,21.86,21.18,38.93,21.18h.02c16.63,0,30.99-7.7,37.68-20.1.34.02.67.03,1.02.03.36,0,.73-.01,1.1-.03,3.32-.14,6.46-.88,8.83-2.08,2.61-1.32,4.05-3.1,4.05-4.98,0-1.13-.5-2.21-1.46-3.13h0ZM91.47,70.04h0s0,0,0,0h0ZM94.55,67.26c3.32-.06,5.23.62,5.64,1.01-.5.59-3.08,1.6-6.46,1.78.31-.91.59-1.84.83-2.79h0ZM65.48,37.24c.06-.08.11-.11.21-.13l9.86-1.56c.07-.01.12-.05.18-.07.05-.02.1-.03.15-.06.13-.07.24-.16.33-.27,0,0,.02-.01.02-.02l12.02-16.06s.02-.04.03-.06c.04-.06.07-.13.09-.2.03-.06.05-.12.06-.18.01-.07.01-.13.01-.19,0-.07,0-.14-.02-.21,0-.02,0-.05,0-.07-.15-.5-.06-1.03.26-1.44l10.46-13.98c.27-.35.66-.58,1.1-.65.45-.07.89.04,1.25.3.75.54.91,1.58.36,2.31l-10.46,13.98c-.32.43-.85.68-1.41.67h-.03s-.05.02-.08.02c-.07,0-.13.02-.21.04-.07.02-.13.04-.19.07-.06.03-.11.07-.16.1-.06.05-.11.09-.16.15-.02.02-.05.03-.06.06l-11.98,16.01v.02s-.04.08-.07.12c-.05.08-.09.16-.12.25-.02.09-.02.18-.02.27,0,.05-.02.09-.01.13l1.35,9.58c.02.1,0,.15-.06.23l-2.67,3.56-6.63,8.86c-.1.14-.31.17-.45.07l-12.2-8.76c-.09-.07-.12-.16-.13-.21,0-.05-.01-.15.06-.24l9.29-12.42h0ZM24.45,53.34c7.65-2.83,17.84-4.39,28.7-4.39.34,0,.68.01,1.02.02-.16.39-.22.82-.15,1.25.1.63.45,1.19.97,1.57l10.59,7.61s-.03,0-.05,0c-1.02,0-1.97.37-2.74.99-.81-1.2-2.17-1.97-3.67-1.97-1.83,0-3.43,1.15-4.08,2.78-.57-.27-1.2-.43-1.88-.43-.3,0-.6.05-.89.11-.38-2.06-2.17-3.63-4.34-3.63-1.76,0-3.31,1.05-4.01,2.59-.44-.14-.89-.22-1.36-.22-.53,0-1.05.11-1.54.29-.77-1.36-2.21-2.23-3.83-2.23-1.77,0-3.3,1.05-4,2.57-.67-.39-1.43-.63-2.23-.63-2.44,0-4.42,1.98-4.42,4.41,0,.24.04.47.07.7-1.37-.02-2.69.58-3.56,1.69-1.36,1.75-1.14,4.24.52,5.78.16.16.38.23.59.23.23,0,.45-.09.62-.26.32-.33.31-.86-.03-1.18-1.03-.96-1.17-2.5-.34-3.57.68-.87,1.82-1.2,2.9-.91.8,1.16,2.13,1.92,3.65,1.92.47,0,.85-.37.85-.84s-.38-.84-.85-.84c-1.5,0-2.72-1.23-2.72-2.75s1.22-2.75,2.72-2.75c.78,0,1.52.34,2.04.93.03.03.07.05.1.08.05.04.09.09.15.12s.12.04.18.06c.04.01.07.03.12.04h.04s.04,0,.06,0c.05,0,.1-.02.14-.03.05-.01.09-.01.13-.03.08-.03.15-.07.22-.12.02-.02.04-.02.06-.03h0c.08-.08.15-.16.2-.25.02-.04.02-.08.04-.12.02-.06.05-.11.05-.17.16-1.38,1.32-2.42,2.7-2.42,1.2,0,2.25.78,2.6,1.93.01.04.04.07.06.11s.03.08.05.12c0,.01.02.02.03.03.08.1.17.19.28.25.01,0,.02,0,.04.01.1.05.21.07.32.08.02,0,.03.01.04.01.16,0,.33-.05.47-.14.44-.29.96-.44,1.48-.44.5,0,.99.14,1.41.4.05.03.1.04.15.06s.09.05.15.06h.01c.07.01.14,0,.22,0,.04,0,.08,0,.11,0,.05-.01.1-.04.14-.06.05-.02.11-.04.15-.07.03-.02.05-.05.08-.08.06-.05.11-.1.15-.16,0,0,0,0,0,0,.03-.05.04-.1.06-.15s.05-.09.06-.14c.25-1.28,1.37-2.22,2.67-2.22,1.5,0,2.72,1.23,2.72,2.75,0,.09,0,.19-.02.28,0,.03.01.05.01.08,0,.06,0,.11.02.17.01.06.03.11.05.16.01.03.01.05.03.08s.04.04.05.06c.03.05.07.09.11.13.04.04.08.07.12.1s.09.05.14.07c.06.02.11.04.16.05.03,0,.05.02.07.02.03,0,.06,0,.08,0,.02,0,.03,0,.04-.01.05,0,.09-.02.14-.03.06-.02.12-.03.17-.06.02,0,.03,0,.05-.02.4-.21.83-.32,1.27-.32,1.5,0,2.72,1.23,2.72,2.75,0,.08,0,.16-.01.23-.04.46.31.86.78.9.03,0,.05,0,.07,0,.44,0,.81-.33.85-.77.01-.12.02-.25.02-.37,0-1.11-.43-2.12-1.11-2.89.26-1.25,1.36-2.19,2.65-2.19,1.21,0,2.28.82,2.62,1.99.01.04.04.07.06.11.03.06.05.11.08.16s.08.09.13.13c.03.03.05.06.09.09,0,0,.02,0,.02.01.05.03.11.05.17.07.05.02.09.04.14.05s.09,0,.14,0c.06,0,.13,0,.19-.02h.03s.08-.04.11-.06c.06-.03.11-.05.16-.08s.09-.09.13-.13c.03-.03.06-.05.09-.09.51-.77,1.36-1.23,2.27-1.23,1.46,0,2.66,1.16,2.72,2.63,0,0,0,.01,0,.02,0,.06.03.11.04.17.02.05.02.1.04.15.02.04.05.07.07.1.04.06.08.12.13.16,0,0,.01.02.02.02.03.03.07.03.1.05.06.04.11.07.17.09.05.02.11.03.16.03.04,0,.08.03.13.03h.04s.01,0,.02,0c.07,0,.13-.03.19-.05.04-.02.09-.02.13-.04.04-.02.07-.05.1-.07.06-.04.12-.08.16-.13,0,0,.01,0,.01-.01.52-.59,1.26-.93,2.04-.93,1.5,0,2.72,1.23,2.72,2.75,0,.67-.24,1.31-.68,1.82-.31.35-.26.88.09,1.18.16.14.36.2.55.2.24,0,.48-.1.65-.29.53-.61.88-1.34,1.02-2.13.57.02,1.12.21,1.57.55,1.18.91,1.36,2.62.4,3.8-.21.26-.45.47-.73.64-.4.25-.52.76-.27,1.15.16.25.44.39.72.39.15,0,.31-.04.45-.13.45-.27.84-.62,1.17-1.03,1.54-1.91,1.23-4.67-.68-6.15-.76-.59-1.69-.9-2.65-.92-.42-2-2.2-3.52-4.33-3.52-.77,0-1.5.22-2.15.58-.17-.44-.42-.85-.71-1.2.66-.08,1.28-.39,1.7-.95l6.19-8.27c10.13,2.69,16.4,7.01,16.4,11.36,0,.02,0,.04,0,.05-.07.49-.16.97-.25,1.45-.99,3.03-4.91,5.99-11.1,8.28-7.65,2.83-17.84,4.39-28.7,4.39s-21.05-1.56-28.7-4.39c-5.7-2.11-9.46-4.77-10.81-7.55-.2-.74-.4-1.48-.55-2.24,0-3.55,4.14-7.11,11.36-9.78h-.02ZM11.61,66.06c.25.95.53,1.88.85,2.79-3.26-.38-5.69-1.45-6.19-2.06.5-.39,2.46-.86,5.34-.72h0ZM2.13,66.47c0-.55.27-1.07.8-1.56,1.47-1.34,4.5-2.06,8.05-1.97,0,.06-.01.12-.01.18,0,.11.02.21.02.31h0c.01.18.01.35.03.51-2.46-.05-5.07.29-6.26,1.36-.57.51-.68,1.06-.68,1.44,0,2.52,5.35,3.94,8.72,4.24.36.03.7.04,1.05.05.06.01.12.03.18.03.03,0,.05-.02.08-.02.2,0,.4.03.59.03.37,0,.72-.03,1.07-.05.17.26.26.58.13,1.04-.95.04-1.92.03-2.92-.07-6.4-.57-10.86-3.37-10.86-5.52h0ZM53.76,93.25h-.02c-15.92,0-29.77-7.35-36.6-19.26.1-.06.2-.13.28-.21.02-.02.03-.04.04-.06.04-.05.08-.1.12-.16.23-.44.38-.88.45-1.3,7.5,4.33,20.3,7.13,35.11,7.13s27.7-2.82,35.19-7.18c-.1.72.06,1.51.48,2.34.03.05.06.08.09.12.02.03.04.06.06.08.07.08.14.14.22.2-6.48,11.32-19.89,18.31-35.42,18.32h0ZM93.48,73.16c-1.01.04-2,0-2.97-.08-.13-.46-.07-.78.09-1.03.5.05,1.01.09,1.54.1.02,0,.04.01.06.01.02,0,.04,0,.05-.01.13,0,.25.01.38.01.31,0,.62,0,.93-.02,3.4-.14,8.8-1.32,8.8-3.88,0-.38-.12-.94-.68-1.47-1.25-1.19-4.12-1.61-6.66-1.62,0-.03,0-.05.01-.07.09-.31.16-.61.22-.93,3.63.06,6.75.93,8.26,2.38.54.52.82,1.07.82,1.64,0,2.14-4.45,4.71-10.84,4.98h0ZM29.39,48.39c2.44,0,4.42-1.94,4.42-4.33s-1.98-4.33-4.42-4.33-4.42,1.94-4.42,4.33,1.98,4.33,4.42,4.33ZM29.39,41.39c1.5,0,2.72,1.19,2.72,2.66s-1.22,2.66-2.72,2.66-2.72-1.19-2.72-2.66,1.22-2.66,2.72-2.66ZM35.66,40.12c1.93,0,3.49-1.54,3.49-3.42s-1.57-3.42-3.49-3.42-3.49,1.54-3.49,3.42,1.57,3.42,3.49,3.42ZM35.66,34.94c.99,0,1.79.79,1.79,1.76s-.8,1.76-1.79,1.76-1.79-.79-1.79-1.76.8-1.76,1.79-1.76ZM35.37,69.27c.26-2.22,2.15-3.9,4.39-3.9,1.62,0,3.06.87,3.83,2.23.49-.18,1.01-.29,1.54-.29.82,0,1.62.23,2.32.65.4.25.52.76.27,1.15-.25.39-.78.51-1.18.26-.43-.26-.91-.4-1.41-.4-.53,0-1.04.16-1.48.44-.14.1-.31.14-.47.14-.02,0-.03-.01-.04-.01-.11,0-.23-.03-.33-.08-.01,0-.02,0-.03-.01-.11-.06-.21-.15-.28-.25,0-.01-.02-.02-.03-.03-.03-.04-.03-.08-.05-.12-.02-.04-.05-.07-.06-.11-.35-1.16-1.4-1.93-2.6-1.93-1.38,0-2.54,1.04-2.7,2.42-.05.43-.42.74-.84.74-.03,0-.07,0-.1,0-.47-.05-.8-.47-.75-.92h0ZM51.21,71.71c-.23-.4-.08-.91.34-1.13.64-.34,1.37-.53,2.1-.53.67,0,1.31.16,1.88.43.66-1.63,2.25-2.78,4.08-2.78,1.5,0,2.87.77,3.67,1.97.77-.62,1.73-.99,2.74-.99,2.38,0,4.32,1.86,4.42,4.23.02.46-.35.85-.82.87h-.04c-.45,0-.83-.35-.85-.8-.06-1.47-1.25-2.63-2.72-2.63-.91,0-1.76.46-2.27,1.23-.02.04-.06.06-.09.09-.04.05-.08.1-.13.13s-.11.06-.16.08c-.04.02-.07.05-.11.06h-.03c-.06.02-.12.01-.19.02-.05,0-.1.01-.14,0-.05,0-.09-.03-.13-.05-.06-.02-.12-.04-.17-.07,0,0-.02,0-.02-.01-.04-.02-.06-.06-.09-.08-.05-.04-.1-.08-.13-.13-.04-.05-.06-.11-.08-.16-.02-.04-.05-.07-.06-.11-.33-1.17-1.41-1.99-2.62-1.99-1.29,0-2.39.95-2.65,2.19.68.78,1.11,1.78,1.11,2.89,0,.13,0,.25-.02.37-.04.44-.41.77-.85.77-.03,0-.05,0-.07,0-.47-.04-.82-.44-.78-.9,0-.08.01-.16.01-.23,0-1.51-1.22-2.75-2.72-2.75-.45,0-.88.11-1.27.32-.41.22-.93.08-1.16-.33v.02ZM62.97,52.52c.05.28.2.52.43.69.19.14.42.21.64.21.33,0,.66-.15.87-.43l6.67-8.92c.35-.47.25-1.13-.23-1.48-.23-.17-.52-.24-.8-.19-.29.05-.53.19-.7.42l-6.67,8.92c-.17.23-.24.51-.2.79h0ZM70.73,43.43s.01.02,0,.02l-6.67,8.92s-.02.01-.02,0v-.02s6.69-8.92,6.69-8.92h0ZM66.51,55.05c.05.28.2.52.43.69.18.14.41.21.64.21.06,0,.11,0,.17-.02.29-.05.53-.19.7-.42l6.67-8.92c.17-.23.24-.51.2-.79-.05-.28-.2-.52-.43-.69-.48-.34-1.16-.24-1.51.23l-6.67,8.92c-.17.23-.24.51-.2.79h0ZM67.56,54.88l6.67-8.92h0s.01,0,.02.02l-6.67,8.92s-.02,0-.02,0l-.31.42.31-.44ZM60.51,50.88c.06,0,.11,0,.17-.02.29-.05.53-.19.7-.42l6.67-8.92c.35-.47.25-1.13-.23-1.48-.48-.34-1.16-.24-1.51.23l-6.67,8.92c-.17.23-.24.51-.2.79.05.28.2.52.43.69.18.14.41.21.64.21h0ZM67.17,40.89h0s.01,0,.02.02l-6.67,8.92s-.02,0-.02,0v-.02s6.67-8.92,6.67-8.92h0Z"/>
</svg>