<?xml version="1.0" encoding="UTF-8"?>
<svg id="Layer_1" data-name="Layer 1" xmlns="http://www.w3.org/2000/svg" viewBox="0 0 98.18 112.18">
  <defs>
    
    <style>
      .cls-1 {
        fill: #000;
        stroke-width: 0px;
      }
    </style>
  </defs>
  <path class="cls-1" d="M41.43,103.44c-1.97-.55-3.89-1.25-5.72-2.11-.68-.32-1.53-.08-1.89.54-.36.62-.09,1.38.6,1.7,1.98.92,4.05,1.68,6.18,2.27.13.03.27.05.41.05.7,0,1.29-.45,1.39-1.08.1-.62-.31-1.21-.97-1.39h0Z"/>
  <path class="cls-1" d="M19.4,85.33c-.14-.31-.41-.56-.76-.7-.35-.13-.73-.13-1.08,0-.35.13-.62.38-.76.69s-.14.67,0,.97c2.65,5.79,7.02,10.8,12.62,14.5.62.41,1.51.3,1.97-.27.46-.56.32-1.36-.3-1.77-5.19-3.42-9.23-8.07-11.69-13.43h0Z"/>
  <path class="cls-1" d="M11.47,31.78c-.98.82-1.34,2.09-.91,3.23l.68,1.9c.45,1.27,1.75,2.14,3.23,2.18l1.47,24.8h0c.13,1.73.36,3.46.69,5.17h-6.84c-.78,0-1.4.56-1.4,1.26v3.09c.09,13.87,8.35,26.66,21.71,33.58,13.35,6.92,29.79,6.92,43.14,0,13.35-6.92,21.62-19.7,21.71-33.58v-3.09c0-.34-.15-.66-.41-.89s-.62-.37-.99-.37h-49.4c-1.46-4.08-3.46-7.98-5.97-11.62l-14.87-20.92h0c1.19-.79,1.69-2.19,1.23-3.46l-.68-1.9c-.28-.8-.9-1.46-1.73-1.84-.35-.15-.72-.26-1.11-.3L15.73,5.73c-.45-1.99-1.82-3.72-3.77-4.75C10.01-.05,7.66-.28,5.51.34,3.36.97,1.61,2.39.69,4.25s-.92,3.98,0,5.84l10.78,21.7ZM25.8,69.06c-.74-2.46-1.36-4.81-1.82-7.01l-5.11-24.04.19-.05,11.4,22.23c1.34,2.6,2.68,5.65,3.93,8.87h-8.58ZM18.74,63.76l-1.06-17.89,3.54,16.67c.44,2.06,1,4.25,1.68,6.53h-3.44c-.36-1.76-.6-3.53-.72-5.31h0ZM92.14,73.42c-.01,9.66-4.28,18.93-11.87,25.77-7.59,6.84-17.88,10.68-28.61,10.69-10.73,0-21.02-3.85-28.61-10.69-7.59-6.83-11.86-16.1-11.87-25.77v-1.83h80.95v1.83ZM41.2,69.06h-3.85c-1.25-3.38-2.71-6.69-4.34-9.94l-7.9-15.4,10.71,15.08h0c2.23,3.23,4.03,6.66,5.38,10.26h0ZM21.82,34.31c-.08.14-.23.26-.41.31l-.56.16h-.03l-3.39.98-.61.18h-.01l-1.47.43h-.01l-.56.16c-.18.05-.37.03-.53-.04s-.28-.21-.34-.37l-.68-1.9c-.12-.33.08-.68.44-.78l6.64-1.92h0c.07-.02.14-.03.21-.03.11,0,.22.02.32.07.16.08.28.21.34.37l.68,1.9h0c.05.16.04.34-.05.49h0ZM3.26,5.28c.91-1.84,3.03-2.94,5.25-2.72,2.22.22,4.03,1.7,4.48,3.68l5.27,23.23-4.25,1.23-2.8-5.65,2.83-.82c.37-.08.7-.31.88-.61.19-.31.22-.67.1-1-.12-.34-.38-.61-.73-.75-.35-.15-.75-.16-1.11-.03l-3.13.91-1.59-3.21,3.54-1.03c.69-.24,1.05-.93.82-1.56-.22-.63-.96-1-1.68-.83l-3.83,1.1L3.26,9.05c-.59-1.2-.6-2.57,0-3.77h0Z"/>
  <path class="cls-1" d="M49.93,47.4c.09.42.13.86.13,1.29v.96c-.06,2.06-.86,4.05-2.27,5.67-1.1,1.36-1.56,3.05-1.28,4.71.56,3.3,3.86,5.66,7.55,5.4s6.55-3.03,6.55-6.37c0-1.42-.52-2.8-1.5-3.91-1.37-1.57-2.12-3.51-2.14-5.5v-1.03c0-.39.04-.78.12-1.17,4.88-1.13,9.33-3.42,12.92-6.62,4.49-4.03,6.05-8.53,4.42-12.69-.31-.74-.09-1.57.55-2.1l21.46-17.68c1.08-.88,1.71-2.13,1.74-3.44.03-1.31-.53-2.58-1.56-3.51C95.59.48,94.18-.03,92.72,0c-1.46.03-2.84.6-3.82,1.56l-19.63,19.32c-.6.58-1.52.78-2.34.51-4.58-1.47-9.59-.06-14.08,3.97-4.62,4.16-7.84,10.34-7.84,15.04-.12,2.03.68,4.01,2.21,5.5.77.68,1.69,1.19,2.71,1.5h0ZM57.81,59.07c0,1.24-.65,2.4-1.76,3.13-1.11.73-2.54.93-3.85.55-1.3-.38-2.33-1.3-2.76-2.47-.43-1.17-.2-2.46.6-3.46,1.77-2.05,2.76-4.56,2.82-7.16v-.96c.05-1.5-.37-2.98-1.22-4.27-.42-.61-.44-1.38-.05-2.01.38-.63,1.12-1.02,1.92-1.02.21,0,.42.02.62.07.72.18,1.29.69,1.5,1.34.18.55.08,1.14-.25,1.63-.35.51-.61,1.06-.8,1.63-.01.03-.03.06-.03.09-.26.8-.38,1.63-.38,2.47v1.04c.02,2.56.98,5.04,2.73,7.05.59.67.9,1.49.9,2.35h0ZM54.82,27.15c3.69-3.31,7.65-4.51,11.17-3.38,1.88.6,3.98.14,5.34-1.18L90.96,3.27c.47-.46,1.13-.73,1.82-.74.7-.02,1.37.22,1.86.67.49.44.76,1.05.74,1.67-.02.63-.32,1.21-.84,1.63l-21.46,17.68h0c-1.48,1.22-2,3.12-1.31,4.81,1.25,3.18-.09,6.75-3.76,10.05-2.75,2.43-6.05,4.29-9.67,5.45.22-.77.22-1.57,0-2.34-.48-1.53-1.81-2.72-3.51-3.13-1.52-.37-3.14-.07-4.39.79-1.2.83-1.91,2.11-1.93,3.47-.51-.89-.75-1.87-.72-2.87,0-4.02,2.95-9.6,7.02-13.26h0Z"/>
</svg>